<svg width="112" height="112" viewBox="0 0 112 112" fill="none" xmlns="http://www.w3.org/2000/svg">
<path d="M69.1599 14.2822V0H0V97.7178H42.8401V112H112V14.2822H69.1599ZM108.488 17.755V63.8574C107.491 64.3783 106.537 64.9426 105.583 65.507L107.404 68.4589C107.751 68.2419 108.141 68.0248 108.488 67.8077V84.6512C106.753 83.3488 103.935 80.3535 100.423 73.6248C101.203 72.9302 102.027 72.2357 102.851 71.6279L100.726 68.893C100.076 69.414 99.4255 69.9349 98.8184 70.4558C97.4309 67.5473 96 64.1178 94.439 60.0372C84.3361 32.9488 73.2791 27.3054 69.1165 26.1333V17.755H108.488ZM3.46883 3.47287H65.6911V94.245H3.46883V3.47287ZM62.1355 97.7178L46.3089 107.225V97.7178H62.1355ZM81.3875 108.527C81.4743 107.919 81.6043 107.225 81.7778 106.4L78.3957 105.662C78.1355 106.834 77.9621 107.789 77.8753 108.527H50.8618L68.8997 97.7178H69.1599V29.7364C73.019 31.2558 82.3415 37.3767 91.2304 61.2093C92.9648 65.8109 94.6125 69.631 96.1734 72.8434C95.523 73.4946 94.8726 74.1023 94.2656 74.7969L96.7805 77.1845C97.1274 76.8372 97.4743 76.4465 97.8211 76.0992C102.591 84.9116 106.363 87.8202 108.531 88.7318V108.527H81.3875Z" fill="#009F56"/>
<path d="M48.6089 73.1973C52.3171 70.0427 55.2492 65.3325 56.8446 59.8877C60.0354 49.0844 56.4566 39.7936 48.0915 37.2873C44.4695 36.2069 40.7612 36.7255 37.5273 38.6269C37.4842 38.0219 37.4411 37.3737 37.398 36.6823C37.5704 36.6823 37.786 36.6823 37.9585 36.6823C40.5888 36.6823 44.3401 36.1637 46.7979 33.7006C50.0749 30.4164 49.8594 24.8419 49.6438 22.6381L49.5144 21.2552L48.1346 21.1256C45.8924 20.8663 40.3732 20.6935 37.0961 23.9777C35.8888 25.1876 35.1558 26.7001 34.7246 28.299C34.164 27.3915 33.4741 26.5272 32.698 25.7062L30.2402 28.1693C33.6035 31.5399 34.164 36.7255 34.164 39.7936C30.542 36.9848 26.1439 36.0773 21.9182 37.3305C17.9513 38.4972 14.8898 41.3493 13.2944 45.2817C11.6128 49.3869 11.5697 54.4428 13.1651 59.9309C14.8036 65.4189 17.7788 70.1723 21.5302 73.3269C25.4109 76.5679 29.6796 77.6914 33.5604 76.5679C34.0778 76.395 34.5952 76.2222 35.0695 75.9629C35.587 76.2222 36.0613 76.395 36.5787 76.5679C37.5704 76.8704 38.5622 77 39.597 77C42.5291 76.9568 45.6768 75.6604 48.6089 73.1973ZM39.4677 26.3976C40.9768 24.8851 43.7796 24.4098 46.2805 24.453C46.3236 26.9594 45.8493 29.7682 44.3401 31.2807C42.5722 33.0524 39.3383 33.2685 37.398 33.2252C37.4842 30.935 37.8723 27.9965 39.4677 26.3976ZM37.4842 73.1973C37.0099 73.0676 36.5787 72.8515 36.1475 72.6355C35.8025 72.4626 35.4145 72.333 34.9833 72.333C34.5952 72.333 34.164 72.4194 33.8191 72.6355C33.3879 72.8948 32.9136 73.0676 32.4824 73.1973C29.7659 74.0183 26.6182 73.1108 23.643 70.6045C20.4091 67.8821 17.8219 63.7336 16.399 58.8938C15.0192 54.1835 15.0192 49.9487 16.399 46.5781C17.6063 43.5964 19.8916 41.5221 22.8237 40.6147C26.4888 39.5343 30.2833 40.6147 33.2585 43.6396L33.776 44.1581H33.9916C34.5952 44.4174 35.3282 44.4174 35.9319 44.1581H36.3631L36.7943 43.5531C39.7695 40.6579 43.5209 39.5776 47.1429 40.6579C53.5676 42.5593 56.1978 50.0783 53.5676 58.937C52.1447 63.7336 49.6006 67.8821 46.4098 70.5613C43.3915 73.0676 40.2438 74.0183 37.4842 73.1973Z" fill="#009F56"/>
<path d="M86 86.3206L88.8 88C90.08 85.5885 91.48 83.2632 93 81.11L90.48 79C88.84 81.2823 87.36 83.7368 86 86.3206Z" fill="#009F56"/>
<path d="M80 99.9859L83.1667 101C83.9583 98.4225 84.9167 95.8451 86 93.3944L82.9583 92C81.8333 94.5775 80.8333 97.2394 80 99.9859Z" fill="#009F56"/>
</svg>
