<svg width="104" height="104" viewBox="0 0 104 104" fill="none" xmlns="http://www.w3.org/2000/svg">
<path d="M90.4167 8.38234V0H79.75V8.38234H24.375V0H13.7083V8.38234H0V104H104V8.38234H90.4167ZM87.6667 2.78007V16.7226H82.5V2.78007H87.6667ZM21.625 2.78007V16.7226H16.4583V2.78007H21.625ZM13.7083 11.7521V19.5026H24.375V11.7521H79.75V19.5026H90.4167V11.7521H100.708V25.5261H3.33333V11.7521H13.7083ZM43.5833 66.3848V52.6108H60.375V66.3848H43.5833ZM60.375 69.7546V83.5286H43.5833V69.7546H60.375ZM40.25 66.3848H23.4583V52.6108H40.25V66.3848ZM63.7083 52.6108H80.5V66.3848H63.7083V52.6108ZM63.7083 49.241V35.5091H80.5V49.2831H63.7083V49.241ZM60.375 49.241H43.5833V35.5091H60.375V49.241ZM40.25 49.241H23.4583V35.5091H40.25V49.241ZM20.125 49.241H3.33333V35.5091H20.125V49.241ZM20.125 52.6108V66.3848H3.33333V52.6108H20.125ZM20.125 69.7546V83.5286H3.33333V69.7546H20.125ZM23.4583 69.7546H40.25V83.5286H23.4583V69.7546ZM40.25 86.8983V100.63H23.4583V86.8983H40.25ZM43.5833 86.8983H60.375V100.63H43.5833V86.8983ZM63.7083 86.8983H80.5V100.63H63.7083V86.8983ZM63.7083 83.5286V69.7546H80.5V83.5286H63.7083ZM83.8333 69.7546H100.667V83.5286H83.8333V69.7546ZM83.8333 66.3848V52.6108H100.667V66.3848H83.8333ZM83.8333 49.241V35.5091H100.667V49.2831H83.8333V49.241ZM3.33333 32.1393V28.8959H100.667V32.1393H3.33333ZM3.33333 86.8983H20.125V100.63H3.33333V86.8983ZM83.8333 100.588V86.8562H100.667V100.588H83.8333Z" fill="#009F56"/>
</svg>
