<svg width="273" height="36" viewBox="0 0 273 36" fill="none" xmlns="http://www.w3.org/2000/svg">
<g clip-path="url(#clip0)">
<path d="M16.3228 13.7822C12.8033 18.8317 7.28144 22.5149 0.970703 23.7624C1.88091 26.3169 3.33723 28.7525 5.46103 30.8317C8.49504 33.802 12.3786 35.5248 16.3835 36.0001V13.7822H16.3228Z" fill="white"/>
<path d="M20.6914 20.1387V36.0001C24.6963 35.5248 28.5192 33.802 31.6138 30.8317C34.7085 27.8614 36.4076 24.0595 36.893 20.1387H20.6914Z" fill="white"/>
<path d="M20.6914 15.8614H36.893C36.4076 11.9406 34.6479 8.19802 31.6138 5.16832C28.5798 2.19802 24.6963 0.475248 20.6914 0V15.8614Z" fill="white"/>
<path d="M16.3205 0.118812V0C12.3156 0.475248 8.49278 2.19802 5.39809 5.16832C1.3932 9.08911 -0.427205 14.4356 0.0582361 19.5446C9.3423 17.7624 16.3205 9.74257 16.3205 0.118812Z" fill="#28CE85"/>
<g clip-path="url(#clip1)">
<path d="M260.097 9.39097C260.097 13.2872 256.831 17.2334 252.818 17.2334H250.941V0.649372V0.249756H243.096V33.9424H250.941V23.4524H252.715L259.84 33.9424H268.843L259.763 21.7291C264.264 19.3314 267.325 14.7109 267.325 9.36599H260.097V9.39097Z" fill="white"/>
<path d="M138.642 19.4812L135.53 18.632C133.678 18.1325 132.006 17.558 132.006 16.4591C132.006 14.7108 134.938 14.436 136.379 14.436C140.006 14.436 143.606 16.0595 143.606 16.0595C143.992 14.9855 145.098 11.339 145.098 11.339C145.098 11.339 142.449 8.89136 135.453 8.89136C128.971 8.89136 124.83 11.7386 124.83 16.6839C124.83 19.5561 126.116 22.0038 131.132 23.3774L133.961 24.2266C136.147 24.851 138.359 25.4754 138.359 26.7992C138.359 28.997 135.581 28.997 133.678 28.997C129.588 28.997 125.885 27.2487 125.885 27.2487C125.679 27.9231 124.882 31.7944 124.882 31.7944C124.882 31.7944 127.145 34.5417 134.193 34.5417C141.24 34.5417 145.741 31.5196 145.741 26.4745C145.716 23.1277 143.812 20.8299 138.642 19.4812Z" fill="white"/>
<path d="M54.0459 33.7927H62.1995V20.3556H74.4427V13.6121L62.1995 13.8369V6.59385L76.7834 6.81864V0.100098H54.0459V33.7927Z" fill="white"/>
<path d="M171.926 6.69329H180.594V33.8672H188.747V6.69329H197.415V0.174561H171.926V6.69329Z" fill="white"/>
<path d="M79.2783 9.61573V33.8674H87.2776V23.5024V20.6301H86.9689H87.2519H88.3064C94.0937 20.6301 98.8006 16.0595 98.8006 10.4399V9.11621H97.4374C92.1903 9.11621 87.8177 12.8626 87.0718 17.7579H86.3773L87.4062 9.61573H79.2783Z" fill="white"/>
<path d="M196.952 9.61573V33.8674H204.951V23.5024V20.6301H204.643H204.926H205.98C211.768 20.6301 216.474 16.0595 216.474 10.4399V9.11621H215.111C209.864 9.11621 205.492 12.8626 204.746 17.7579H204.051L205.08 9.61573H196.952Z" fill="white"/>
<path d="M170.177 11.9635C168.891 10.7397 166.91 9.76561 163.952 9.76561H163.927C161.843 9.76561 159.863 10.6897 158.602 12.3132C157.908 13.2123 157.419 14.2863 157.239 15.4352H156.468L157.574 0H149.034V33.8674H157.033V20.3554L157.059 19.9059C157.188 18.5072 157.934 17.5581 158.525 17.0086C159.374 16.2843 160.454 16.1345 161.252 16.1345C161.998 16.1345 162.949 16.2344 163.67 17.0086C164.518 17.9328 164.621 19.4813 164.621 20.9798V33.8674H172.363V17.683C172.363 15.7349 172.055 13.8117 170.177 11.9635Z" fill="white"/>
<path d="M231.058 17.2835V19.906C230.107 19.5813 227.817 18.9818 225.554 18.9319C219.998 18.807 215.831 21.6793 216.063 26.8493C216.243 31.0702 219.227 34.3171 224.088 34.3171C225.168 34.3171 226.068 34.1423 226.891 33.8925H226.84C229.412 33.0683 231.341 30.9204 231.753 28.2729H232.524L231.753 33.8925H238.877V16.9088C238.877 11.8637 235.122 8.99146 228.538 8.99146C221.413 8.99146 218.712 11.4891 218.712 11.4891C218.712 11.4891 219.175 14.8858 219.407 16.6591C219.407 16.6591 223.908 14.636 227.586 14.636H227.792C228.203 14.636 228.641 14.686 229.026 14.7859C230.209 15.0356 231.058 16.0846 231.058 17.2835ZM231.058 24.5265C231.058 24.7263 231.033 24.9261 231.007 25.1509C230.93 25.5505 230.801 25.9501 230.621 26.2998C229.901 27.5986 228.435 28.8474 226.403 28.8474C224.474 28.8474 223.162 27.7484 223.11 25.9751C223.11 23.9271 225.142 22.7282 227.689 22.7282C229.206 22.7282 230.621 23.003 231.084 23.1778V24.5265H231.058Z" fill="white"/>
<path d="M111.533 9.01636C103.457 9.01636 99.1611 14.5111 99.1611 21.7042C99.1611 28.9971 102.814 34.6667 111.713 34.6667C118.838 34.6667 121.487 31.4448 121.487 31.4448L118.606 27.024C117.86 27.3737 115.777 28.8723 112.588 28.8723C108.318 28.8723 106.517 26.1749 106.414 23.2527L106.517 23.1278L122.13 23.1028C122.13 21.1047 122.13 22.2536 122.13 18.3074C122.156 13.2123 118.452 9.01636 111.533 9.01636ZM115.057 19.5063H106.569C106.466 17.7579 107.392 14.561 111.301 14.561C113.899 14.561 115.16 15.9597 115.16 18.3074C115.16 19.0067 115.057 19.5063 115.057 19.5063Z" fill="white"/>
</g>
</g>
<defs>
<clipPath id="clip0">
<rect width="273" height="36" fill="white"/>
</clipPath>
<clipPath id="clip1">
<rect x="54.0459" width="214.797" height="34.6667" fill="white"/>
</clipPath>
</defs>
</svg>
