<svg width="39" height="36" viewBox="0 0 39 36" fill="none" xmlns="http://www.w3.org/2000/svg">
<path fill-rule="evenodd" clip-rule="evenodd" d="M19.3274 5.83209C19.041 5.54474 16.3208 3.29383 13.0279 2.336C12.9324 2.28811 12.8847 2.19232 12.9802 2.14443C13.7437 1.71341 16.1299 0.516113 19.3751 0.516113C22.6203 0.516113 24.9588 1.66551 25.8178 2.14443C25.9132 2.19232 25.9132 2.336 25.7701 2.38389C24.9588 2.52757 22.8589 3.19805 19.3751 5.83209H19.3274ZM3.72239 8.17882C4.72459 8.13093 10.1173 7.93937 15.1283 10.8128H15.176L15.1883 10.7922C15.3587 10.5069 16.1086 9.25071 17.085 8.13093V8.08304C16.7032 7.60413 11.549 3.24608 3.96101 4.73069C3.96101 4.73069 3.91329 4.73069 3.91329 4.77858C3.86556 4.92225 3.57922 5.97585 3.57922 8.03515C3.57922 8.13093 3.62695 8.17882 3.72239 8.17882ZM17.9434 12.441C17.8957 12.3931 17.848 12.3452 17.8957 12.2973C23.3839 3.19803 32.69 4.3953 34.5035 4.68265C34.6944 4.73054 34.8375 4.87421 34.8853 5.06578C35.1716 6.31094 35.2193 7.604 35.2193 8.03502C35.2193 8.1308 35.1716 8.17869 35.0762 8.17869C26.5336 7.79557 20.425 12.6805 19.5183 13.4946C19.4706 13.5425 19.3751 13.5425 19.2797 13.4946L17.9434 12.441ZM38.4644 12.0098C38.4167 11.7704 38.2735 11.5788 38.0349 11.5309C36.2692 11.1478 28.5857 9.95051 21.3317 15.9368C12.6938 23.0247 14.3641 32.6507 14.7936 34.5663C14.8413 34.7579 15.0322 34.9494 15.2231 34.9973C16.2253 35.2368 19.3273 35.7636 23.002 35.0452C28.4902 33.9916 35.2192 30.3998 37.9872 21.2527C39.1803 17.4693 38.6553 13.255 38.4644 12.0098ZM17.1322 15.889C17.1322 15.889 10.6895 9.51955 0.428997 11.6267C0.428997 11.6267 0.381273 11.6267 0.381273 11.6746C0.190379 12.393 -2.76847 26.8081 11.4531 33.7523C11.5486 33.8002 11.6917 33.7044 11.6917 33.6086C11.4054 31.8845 10.5464 23.3121 17.1322 15.889Z" fill="#BEC566"/>
</svg>
