<svg width="106" height="119" viewBox="0 0 106 119" fill="none" xmlns="http://www.w3.org/2000/svg">
<path fill-rule="evenodd" clip-rule="evenodd" d="M98.0215 34.9534L92.8925 29.8244L90.3755 32.3414C98.8764 41.5072 104.1 53.7124 104.1 67.1523C104.1 95.3145 81.1622 118.253 53 118.253C24.8378 118.253 1.89964 95.362 1.89964 67.1523C1.89964 53.7599 7.12366 41.5072 15.6246 32.3414L13.1075 29.8244L7.97849 34.9534L0 26.9749L12.9176 14.0573L20.8961 22.0358L15.8145 27.2124L18.3315 29.7294C27.0224 21.6559 38.4677 16.6219 51.1004 16.147V12.4427H36.948V0H69.0995V12.3952H54.9471V16.0995C67.5798 16.5744 79.0251 21.6559 87.716 29.6819L90.233 27.1649L85.1039 22.0358L93.0824 14.0573L106 26.9749L98.0215 34.9534ZM100.586 26.9749L93.0349 19.4238L90.4229 22.0358L97.974 29.5869L100.586 26.9749ZM65.2052 3.79928H40.7473V8.64337H65.2052V3.79928ZM12.9176 19.4238L5.36649 26.9749L7.97849 29.5869L15.5296 22.0358L12.9176 19.4238ZM5.69893 67.1523C5.69893 93.2249 26.9274 114.453 53 114.453C79.0726 114.453 100.301 93.2249 100.301 67.1523C100.301 41.0797 79.0726 19.8513 53 19.8513C26.9274 19.8513 5.69893 41.0797 5.69893 67.1523ZM52.9998 27.6396C31.2015 27.6396 13.4873 45.3538 13.4873 67.1522C13.4873 88.9506 31.2015 106.665 52.9998 106.665C74.7982 106.665 92.5124 88.9506 92.5124 67.1522C92.5124 45.3538 74.7982 27.6396 52.9998 27.6396ZM52.9998 102.865C33.2911 102.865 17.2866 86.861 17.2866 67.1522C17.2866 47.4434 33.2911 31.4389 52.9998 31.4389C72.7086 31.4389 88.7131 47.4434 88.7131 67.1522C88.7131 86.861 72.7086 102.865 52.9998 102.865ZM68.7674 53.9975L66.0604 51.2905L58.6043 58.7466C56.9896 57.6543 55.0425 57.0369 53.0004 57.0369C47.3964 57.0369 42.8848 61.5961 42.8848 67.1525C42.8848 72.709 47.4439 77.2681 53.0004 77.2681C58.5568 77.2681 63.1159 72.709 63.1159 67.1525C63.1159 65.0154 62.4511 63.0208 61.3113 61.4061L68.7674 53.9975ZM53.0004 73.5163C49.486 73.5163 46.684 70.6669 46.684 67.2C46.684 63.7332 49.5335 60.8837 53.0004 60.8837C56.4672 60.8837 59.3167 63.7332 59.3167 67.2C59.3167 70.6669 56.4672 73.5163 53.0004 73.5163ZM51.1006 34.7637H54.8999V41.5549H51.1006V34.7637ZM54.8999 92.75H51.1006V99.5412H54.8999V92.75ZM78.5977 65.2524H85.3889V69.0517H78.5977V65.2524ZM27.4025 65.2524H20.6113V69.0517H27.4025V65.2524ZM64.1201 44.0322L67.5076 38.1463L70.8004 40.0414L67.413 45.9273L64.1201 44.0322ZM38.5939 88.4136L35.2051 94.2988L38.4975 96.1947L41.8864 90.3094L38.5939 88.4136ZM74.208 81.5884L76.1035 78.2959L81.9887 81.6841L80.0933 84.9765L74.208 81.5884ZM25.8632 49.3389L23.9678 52.6313L29.853 56.0195L31.7485 52.727L25.8632 49.3389ZM74.2197 52.7275L80.0989 49.3279L82.0008 52.6169L76.1217 56.0166L74.2197 52.7275ZM29.8853 78.3311L24.0068 81.7314L25.9091 85.0201L31.7876 81.6197L29.8853 78.3311ZM64.1719 90.2559L67.4605 88.3536L70.8609 94.232L67.5722 96.1343L64.1719 90.2559ZM38.4078 38.1656L35.1191 40.0679L38.5195 45.9463L41.8082 44.044L38.4078 38.1656Z" fill="#009F56"/>
</svg>
