<svg width="98" height="96" viewBox="0 0 98 96" fill="none" xmlns="http://www.w3.org/2000/svg">
<path d="M59.2997 42.0386H30.1074V45.2203H59.2997V42.0386Z" fill="#009F56"/>
<path d="M25.6135 42.0386H17.6592V45.2203H25.6135V42.0386Z" fill="#009F56"/>
<path d="M59.2997 58.3447H30.1074V61.5264H59.2997V58.3447Z" fill="#009F56"/>
<path d="M25.6135 58.3447H17.6592V61.5264H25.6135V58.3447Z" fill="#009F56"/>
<path d="M25.6135 74.6509H17.6592V77.8326H25.6135V74.6509Z" fill="#009F56"/>
<path d="M97.0027 46.1747L90.7188 39.8908C89.4064 38.5784 87.2985 38.5386 85.8269 39.8113L82.8838 42.7544L76.6795 48.9587V26.7662C66.2196 16.3063 60.3732 10.4599 49.9132 0H0V95.0141H76.6795V71.191L91.7529 56.1176L91.7927 56.1574L96.8436 51.1064C97.5595 50.4701 97.9572 49.6348 97.997 48.7201C98.0368 47.7656 97.6788 46.8508 97.0027 46.1747ZM89.5257 53.8506L64.4696 78.9067L61.1288 75.5659L57.8278 72.2648L82.8838 47.2088L88.5712 52.8961L89.5257 53.8506ZM60.6913 82.7248H54.0097L54.0495 76.0829L55.6006 74.5318L62.2424 81.1737L60.6913 82.7248ZM94.7357 48.7201L91.7927 51.6632L85.1508 45.0214L87.9746 42.1976C88.1337 42.0783 88.3325 41.9987 88.4916 42.1578L94.7755 48.4417C94.8153 48.4815 94.8551 48.5212 94.8551 48.6008C94.8153 48.6406 94.7755 48.6803 94.7357 48.7201ZM53.095 7.6759L69.0036 23.5845H53.095V7.6759ZM73.4978 91.8324H3.18172V3.18172H48.6008L49.9132 4.49418V26.806H72.2251L73.5375 28.1185V52.1405L55.6006 70.0774L53.3336 72.3444L50.9871 74.6909H30.107V77.8726H50.828L50.7882 85.9462H61.964L66.6571 81.2532L66.6173 81.2134L73.4182 74.4125V91.8324H73.4978Z" fill="#009F56"/>
</svg>
