<svg width="104" height="102" viewBox="0 0 104 102" fill="none" xmlns="http://www.w3.org/2000/svg">
<path fill-rule="evenodd" clip-rule="evenodd" d="M15.0607 33.5418C15.0607 37.6539 11.6822 41 7.53033 41C3.37847 41 0 37.6539 0 33.5418C0 29.4297 3.37847 26.0836 7.53033 26.1239C9.15851 26.1239 10.6646 26.6077 11.8857 27.4946L30.5691 11.0462C29.9585 9.95772 29.6329 8.74828 29.6329 7.45821C29.6329 3.34612 33.0114 0 37.1632 0C41.3151 0 44.6935 3.34612 44.6935 7.4179C44.6935 8.34513 44.5307 9.23206 44.2051 10.0383L61.6673 21.5683C63.0106 20.2783 64.8423 19.5123 66.8368 19.5123C69.0348 19.5123 70.9886 20.4395 72.3726 21.9312L89.265 12.3766C89.0614 11.7316 88.9393 11.0059 88.9393 10.2399C88.9393 6.12783 92.3178 2.78171 96.4697 2.78171C100.622 2.78171 104 6.16814 104 10.2802C104 14.3923 100.622 17.7384 96.4697 17.7384C94.2716 17.7384 92.3178 16.8112 90.9339 15.3196L74.0415 24.8338C74.245 25.4789 74.3671 26.2045 74.3671 26.9705C74.3671 31.0826 70.9886 34.4287 66.8368 34.4287C62.6849 34.4287 59.3065 31.0826 59.3065 26.9705C59.3065 26.0433 59.4693 25.1563 59.7949 24.3501L42.3327 12.8201C40.9894 14.1101 39.1577 14.8761 37.1632 14.8761C35.535 14.8761 34.029 14.3923 32.8078 13.5054L14.1245 29.9538C14.735 31.0423 15.0607 32.2517 15.0607 33.5418ZM96.4697 6.12783C94.1902 6.12783 92.3178 7.9823 92.3178 10.2399C92.3178 12.5379 94.1902 14.352 96.4697 14.352C98.7491 14.352 100.622 12.4975 100.622 10.2399C100.622 7.9823 98.7491 6.12783 96.4697 6.12783ZM11.6822 33.5418C11.6822 31.2842 9.80978 29.4297 7.53033 29.4297C5.25088 29.4297 3.37847 31.2439 3.37847 33.5418C3.37847 35.8397 5.25088 37.6539 7.53033 37.6539C9.80978 37.6539 11.6822 35.7994 11.6822 33.5418ZM37.1632 3.34612C34.8838 3.34612 33.0113 5.20059 33.0113 7.45821C33.0113 9.71583 34.8838 11.5703 37.1632 11.5703C39.4427 11.5703 41.3151 9.71583 41.3151 7.45821C41.3151 5.20059 39.4427 3.34612 37.1632 3.34612ZM70.9886 27.0108C70.9886 24.7532 69.1162 22.8987 66.8368 22.8987C64.5166 22.8987 62.6849 24.7532 62.6849 27.0108C62.6849 29.2684 64.5573 31.1229 66.8368 31.1229C69.1162 31.1229 70.9886 29.2684 70.9886 27.0108ZM76.5 49C61.8669 49 50 60.907 50 75.5C50 90.093 61.907 102 76.5 102C91.093 102 103 90.093 103 75.5C103 60.907 91.1331 49 76.5 49ZM99.7526 73.8964H78.1036V52.2474C89.6899 53.0492 98.9508 62.3101 99.7526 73.8964ZM99.7526 77.1036C99.4319 81.5136 97.9085 85.6029 95.4629 89.0106L80.9902 77.1036H99.7526ZM76.5 98.7927C63.671 98.7927 53.2073 88.329 53.2073 75.5C53.2073 63.1921 62.789 53.0893 74.8964 52.2474V76.2216L93.4183 91.4561C89.1687 95.9864 83.1551 98.7927 76.5 98.7927ZM39 58H1V62H39V58ZM39 74H1V78H39V74ZM1 90H39V94H1V90Z" fill="#009F56"/>
</svg>
