<svg width="111" height="109" viewBox="0 0 111 109" fill="none" xmlns="http://www.w3.org/2000/svg">
<path d="M111 66.8011V48.5867H106.119L107.242 46.1754C108.538 43.4195 108.149 40.2331 106.292 37.8648C105.86 37.3481 105.299 36.7452 104.521 36.3146L105.817 28.9083C106.249 26.4969 105.515 24.0856 103.917 22.4493C102.923 21.4589 101.844 20.9422 100.677 20.8991L98.993 20.813L98.7339 16.507C98.6907 15.6027 98.4747 14.7846 98.1292 14.0956C96.8335 11.469 93.7237 9.91882 89.3615 9.78964C88.6272 9.74658 88.0226 10.3064 87.9794 11.0814L87.4611 20.7269C85.7766 21.3728 84.4809 22.7938 84.1354 24.6454L82.9261 30.7168C81.6303 30.8891 80.4642 31.7072 79.9027 32.9559L76.1883 41.0082C75.6268 42.2569 75.7564 43.6779 76.4475 44.7975L73.4673 48.5867H72.7763L78.3911 17.6696C79.1685 13.4497 77.1817 9.35904 73.7697 7.16297C73.856 7.11991 73.9424 7.07685 74.072 6.99073C75.3677 6.08647 76.1883 4.79467 76.4907 3.24451C76.6202 2.51249 76.1451 1.69435 75.4109 1.56517L66.5136 0.0150051C66.1681 -0.028055 65.7794 0.0150051 65.5202 0.230305C65.2179 0.445606 65.0451 0.747026 64.9587 1.09151C64.6564 2.72779 65.0019 4.27795 65.909 5.52669C65.9521 5.61281 66.0385 5.69893 66.1249 5.78505C64.786 6.04341 63.5335 6.60319 62.3673 7.42133C60.1214 8.9715 58.6097 11.3398 58.0914 14.0526L55.9319 25.9372C54.8521 24.5162 53.5132 23.2674 51.872 22.3632C51.0946 21.9326 50.6195 21.1575 50.6195 20.2963V19.2198C51.656 18.9184 52.4335 17.971 52.4335 16.8515V12.2871C52.4335 10.9092 51.3105 9.78964 49.9284 9.78964H41.2903C39.9082 9.78964 38.7852 10.9092 38.7852 12.2871V16.8084C38.7852 17.8419 39.4331 18.7461 40.3833 19.1337V20.6408C40.3833 21.3297 39.9946 21.9756 39.3899 22.3201C35.2868 24.5592 32.7385 28.8652 32.7385 33.5157V37.7356C32.7385 38.9413 33.3864 40.0178 34.3798 40.6206V48.5867H30.0607L28.9809 40.4053C29.8879 39.6733 30.4062 38.5538 30.2335 37.3481L29.7152 33.1282C29.1105 28.5208 26.044 24.6023 21.7249 22.8799C20.9043 22.5354 20.3428 21.8465 20.2132 20.9853L20.0837 19.9518C21.077 19.5212 21.7249 18.4878 21.5953 17.3682L20.9907 12.89C20.8179 11.512 19.6086 10.5647 18.1833 10.737L9.67471 11.8565C9.02685 11.9426 8.42218 12.2871 8.03346 12.8038C7.64475 13.3206 7.42879 13.9665 7.51517 14.6554L8.11984 19.1337C8.24942 20.1671 9.02685 20.9853 9.97704 21.2006L10.193 22.7077C10.2794 23.3966 9.97704 24.0856 9.45875 24.4731C5.65798 27.229 3.67121 31.8364 4.27588 36.4438L4.83735 40.6206C4.96693 41.5249 5.39883 42.3 6.13307 42.8598C6.34903 43.032 6.60817 43.1612 6.86731 43.2904L7.55837 48.5867H0V66.8011H5.87393V69.6862H0V87.9006H5.87393V90.7856H0V109H111V90.8287H105.212V87.9436H111V69.7292H105.212V66.8442H111V66.8011ZM3.02335 51.601H107.977V63.7869H3.02335V51.601ZM90.614 12.5885C92.5144 12.8038 94.8467 13.4928 95.7537 15.3013C95.9265 15.6458 96.056 16.1195 96.056 16.6792L96.272 20.6838L90.1821 20.3824L90.614 12.5885ZM86.77 25.1621C87.0292 23.8703 88.1953 22.966 89.4911 23.0521L100.505 23.6119C100.807 23.6119 101.282 23.7411 101.973 24.387C102.967 25.3774 103.442 26.9275 103.139 28.4777L101.93 35.4965L85.6039 31.0613L86.77 25.1621ZM78.607 42.1277L82.3214 34.0755C82.5805 33.5157 83.2284 33.2143 83.8331 33.3865L103.01 38.5968C103.269 38.6829 103.614 38.8121 104.133 39.5011C105.385 41.0512 105.601 43.1612 104.781 45.0128L103.139 48.5437H86.1654L79.0389 43.721C78.5638 43.3765 78.3479 42.7306 78.607 42.1277ZM78.4342 46.5629L81.3712 48.5437H76.8794L78.4342 46.5629ZM73.2945 3.93347C73.0786 4.27795 72.8195 4.53631 72.4739 4.79467C71.7829 5.26833 70.9622 5.44057 70.1416 5.31139C69.321 5.18221 68.5868 4.70855 68.1117 4.01959C67.8957 3.67511 67.723 3.33063 67.6366 2.94309L73.2945 3.93347ZM58.437 37.7356V33.5157C58.437 32.267 58.2642 31.0613 57.9187 29.9417L60.7261 14.5262C61.0716 12.5455 62.1945 10.78 63.879 9.66046C65.5634 8.49784 67.5502 8.06724 69.5802 8.41172C73.7265 9.14374 76.4475 13.1053 75.7132 17.196L70.0121 48.5867H56.7957V40.5776C57.7459 40.0178 58.437 38.9413 58.437 37.7356ZM41.5062 12.5024H49.7125V16.6362H41.5062V12.5024ZM35.5027 33.4727C35.5027 29.8126 37.4895 26.4108 40.7288 24.6454C42.1973 23.8272 43.1043 22.2771 43.1043 20.6408V19.3059H47.8984V20.2532C47.8984 22.0618 48.8918 23.7842 50.5331 24.6454C53.7292 26.4108 55.7591 29.8126 55.7591 33.4727V37.6926C55.7591 38.0801 55.4568 38.3815 55.0681 38.3815H36.1938C35.8051 38.3815 35.5027 38.0801 35.5027 37.6926V33.4727ZM37.144 41.0943H54.0747V48.5867H37.144V41.0943ZM18.356 13.4497L18.8743 17.5404L10.7545 18.5739L10.2362 14.4832L18.356 13.4497ZM6.9537 36.0993C6.4786 32.4392 8.03346 28.8222 11.0136 26.6692C12.3525 25.6788 13.0436 24.0425 12.8276 22.3632L12.6549 21.0283L17.4058 20.4255L17.5354 21.3728C17.7514 23.1813 19.0039 24.7315 20.7315 25.4204C24.1436 26.7553 26.5623 29.8556 27.0374 33.5157L27.5988 37.6926C27.642 38.0801 27.3829 38.4246 26.9942 38.4676L8.24942 40.879C7.99027 40.9221 7.81751 40.7929 7.73113 40.7498C7.64475 40.7068 7.51517 40.5345 7.47198 40.2762L6.9537 36.0993ZM9.54514 43.4195L26.3463 41.2665L27.2965 48.5867H10.2362L9.54514 43.4195ZM107.977 84.8864H3.02335V72.7004H107.977V84.8864ZM107.977 106.029H3.02335V93.8429H107.977V106.029ZM102.491 90.8287H8.55175V87.9436H102.491V90.8287ZM102.491 69.6862H8.55175V66.8011H102.491V69.6862Z" fill="#009F56"/>
</svg>
