<svg width="116" height="117" viewBox="0 0 116 117" fill="none" xmlns="http://www.w3.org/2000/svg">
<path d="M110.708 17.9886C105.914 9.21609 98.303 1.33067 92.471 2.16849L91.2849 0L69.934 11.5817L72.3063 15.9187L13.7891 47.7068L16.112 51.9945L3.75617 58.6479L4.99176 60.8656L0 63.6255L7.11696 76.6365L12.1087 73.9259L18.5337 85.7047L30.8896 79.0021L33.2125 83.2898L50.0164 74.1723C50.6589 75.0101 51.4003 75.7494 52.191 76.4393L36.5733 117H40.8237L55.6012 78.46C56.8862 79.0514 58.2701 79.4457 59.7034 79.6428V117H63.6572V79.6428C65.0905 79.4457 66.4744 79.0514 67.7594 78.46L82.5369 117H86.7874L71.1696 76.3408C74.4809 73.6302 76.5567 69.4903 76.5567 64.9069C76.5567 63.2313 76.2602 61.6049 75.766 60.1264L91.6308 51.5017L94.0032 55.8387L115.354 44.257L114.069 41.8913C117.973 37.4065 115.502 26.7612 110.708 17.9886ZM8.6985 71.2645L5.38714 65.2026L6.91927 64.3648L10.2306 70.4267L8.6985 71.2645ZM107.199 19.8614C111.45 27.6976 112.586 34.4002 111.796 37.6529L94.6951 6.30834C97.9076 7.49115 102.949 12.0746 107.199 19.8614ZM28.9621 75.5029L20.0659 80.3328L9.09389 60.2742L17.9901 55.4444L23.4761 65.4983L28.9621 75.5029ZM72.6523 64.9069C72.6523 70.9195 67.7594 75.8479 61.6803 75.8479C55.6012 75.8479 50.7083 70.9688 50.7083 64.9069C50.7083 58.845 55.6012 53.9659 61.6803 53.9659C67.7594 53.9659 72.6523 58.8943 72.6523 64.9069ZM89.8022 48.0025L74.0856 56.5286C71.4167 52.5859 66.8698 49.9739 61.7297 49.9739C53.5255 49.9739 46.8039 56.6272 46.8039 64.8576C46.8039 66.9276 47.2487 68.8989 47.99 70.6731L34.794 77.8686L34.3492 77.08L26.9851 63.5762L19.1762 49.2839L74.1844 19.4179L81.9933 33.7102L89.8022 48.0025ZM95.6341 50.4667L95.1399 49.5796L85.4529 31.7881L75.2717 13.1588L89.7033 5.32266L110.066 42.6306L95.6341 50.4667Z" fill="#009F56"/>
</svg>
